<svg xmlns="http://www.w3.org/2000/svg" xmlns:xlink="http://www.w3.org/1999/xlink" width="25" height="25.001" viewBox="0 0 25 25.001">
  <defs>
    <linearGradient id="linear-gradient" x1="0.017" y1="0.088" x2="0.984" y2="0.895" gradientUnits="objectBoundingBox">
      <stop offset="0" stop-color="#fe4f70"/>
      <stop offset="1" stop-color="#cb6bd8"/>
    </linearGradient>
  </defs>
  <g id="Calendar_Icon" data-name="Calendar Icon" transform="translate(-70 -242)">
    <path id="Box" d="M23.808,24.769H19.962A.962.962,0,0,1,19,23.808V19.962A.962.962,0,0,1,19.962,19h3.846a.962.962,0,0,1,.962.962v3.846A.962.962,0,0,1,23.808,24.769Zm-2.885-1.923h1.923V20.923H20.923Z" transform="translate(66.385 238.385)" fill="url(#linear-gradient)"/>
    <path id="Horizontal" d="M27.038,12.923H3.962a.962.962,0,0,1,0-1.923H27.038a.962.962,0,0,1,0,1.923Z" transform="translate(67 238.691)" fill="url(#linear-gradient)"/>
    <path id="Vertical_2" data-name="Vertical 2" d="M20.962,8.769A.962.962,0,0,1,20,7.808V3.962a.962.962,0,1,1,1.923,0V7.808A.962.962,0,0,1,20.962,8.769Z" transform="translate(66.346 239)" fill="url(#linear-gradient)"/>
    <path id="Vertical_1" data-name="Vertical 1" d="M10.962,8.769A.962.962,0,0,1,10,7.808V3.962a.962.962,0,0,1,1.923,0V7.808A.962.962,0,0,1,10.962,8.769Z" transform="translate(66.73 239)" fill="url(#linear-gradient)"/>
    <path id="Outline" d="M23.192,28.077H7.808A4.808,4.808,0,0,1,3,23.269V9.808A4.808,4.808,0,0,1,7.808,5H23.192A4.808,4.808,0,0,1,28,9.808V23.269A4.808,4.808,0,0,1,23.192,28.077ZM7.808,6.923A2.885,2.885,0,0,0,4.923,9.808V23.269a2.885,2.885,0,0,0,2.885,2.885H23.192a2.885,2.885,0,0,0,2.885-2.885V9.808a2.885,2.885,0,0,0-2.885-2.885Z" transform="translate(67 238.924)" fill="url(#linear-gradient)"/>
  </g>
</svg>
